<svg xmlns="http://www.w3.org/2000/svg" width="1500" height="590" viewBox="0 0 1500 590">
<defs><linearGradient id="g" x1="0" y1="0" x2="1" y2="1"><stop offset="0%" stop-color="#111827"/><stop offset="100%" stop-color="#1f2937"/></linearGradient></defs>
<style>
.title{font:700 28px Arial,sans-serif;fill:#f9fafb;}
.sub{font:400 13px Arial,sans-serif;fill:#d1d5db;}
.th{font:700 12px Arial,sans-serif;fill:#111827;}
.td{font:12px Arial,sans-serif;fill:#111827;}
.mono{font:12px "Courier New", monospace;fill:#111827;}
</style>
<rect x="0" y="0" width="1500" height="590" fill="#f3f4f6"/>
<rect x="0" y="0" width="1500" height="92" fill="url(#g)"/>
<text x="24" y="42" class="title">Anomalus Tank Scorecard</text>
<text x="24" y="64" class="sub">Direct tank-hit events + Manabound Strikes max stack</text>
<text x="24" y="82" class="sub">Tanks: Caub, Ichabaddie, Ekureru, Zancoo, Aerodian</text>
<rect x="24" y="110" width="1452" height="30" fill="#e5e7eb" stroke="#d1d5db"/>
<text x="34" y="130" class="th">tank</text>
<text x="214" y="130" class="th">length_tanking</text>
<text x="394" y="130" class="th">max_stacks</text>
<text x="524" y="130" class="th">avg_hit</text>
<text x="644" y="130" class="th">max_hit</text>
<text x="764" y="130" class="th">min_hit</text>
<text x="884" y="130" class="th">hit_events</text>
<text x="984" y="130" class="th">tanking bar</text>
<text x="1204" y="130" class="th">stack bar</text>
<text x="1354" y="130" class="th">avg bar</text>
<rect x="24" y="140" width="1452" height="56" fill="#ffffff" stroke="#e5e7eb"/>
<text x="34" y="162" class="td">Caub</text>
<text x="214" y="162" class="mono">01:30.60</text>
<text x="394" y="162" class="mono">16</text>
<text x="524" y="162" class="mono">1004.3</text>
<text x="644" y="162" class="mono">3178</text>
<text x="764" y="162" class="mono">0</text>
<text x="884" y="162" class="mono">106</text>
<rect x="984" y="152" width="200" height="10" fill="#dbeafe" rx="5"/>
<rect x="984" y="152" width="180" height="10" fill="#2563eb" rx="5"/>
<rect x="1204" y="152" width="130" height="10" fill="#fee2e2" rx="5"/>
<rect x="1204" y="152" width="130" height="10" fill="#dc2626" rx="5"/>
<rect x="1354" y="152" width="130" height="10" fill="#dcfce7" rx="5"/>
<rect x="1354" y="152" width="114" height="10" fill="#16a34a" rx="5"/>
<rect x="24" y="196" width="1452" height="56" fill="#ffffff" stroke="#e5e7eb"/>
<text x="34" y="218" class="td">Ichabaddie</text>
<text x="214" y="218" class="mono">01:40.05</text>
<text x="394" y="218" class="mono">14</text>
<text x="524" y="218" class="mono">1135.5</text>
<text x="644" y="218" class="mono">13254</text>
<text x="764" y="218" class="mono">302</text>
<text x="884" y="218" class="mono">101</text>
<rect x="984" y="208" width="200" height="10" fill="#dbeafe" rx="5"/>
<rect x="984" y="208" width="199" height="10" fill="#2563eb" rx="5"/>
<rect x="1204" y="208" width="130" height="10" fill="#fee2e2" rx="5"/>
<rect x="1204" y="208" width="113" height="10" fill="#dc2626" rx="5"/>
<rect x="1354" y="208" width="130" height="10" fill="#dcfce7" rx="5"/>
<rect x="1354" y="208" width="130" height="10" fill="#16a34a" rx="5"/>
<rect x="24" y="252" width="1452" height="56" fill="#ffffff" stroke="#e5e7eb"/>
<text x="34" y="274" class="td">Ekureru</text>
<text x="214" y="274" class="mono">01:40.13</text>
<text x="394" y="274" class="mono">14</text>
<text x="524" y="274" class="mono">851.7</text>
<text x="644" y="274" class="mono">7245</text>
<text x="764" y="274" class="mono">0</text>
<text x="884" y="274" class="mono">95</text>
<rect x="984" y="264" width="200" height="10" fill="#dbeafe" rx="5"/>
<rect x="984" y="264" width="200" height="10" fill="#2563eb" rx="5"/>
<rect x="1204" y="264" width="130" height="10" fill="#fee2e2" rx="5"/>
<rect x="1204" y="264" width="113" height="10" fill="#dc2626" rx="5"/>
<rect x="1354" y="264" width="130" height="10" fill="#dcfce7" rx="5"/>
<rect x="1354" y="264" width="97" height="10" fill="#16a34a" rx="5"/>
<rect x="24" y="308" width="1452" height="56" fill="#ffffff" stroke="#e5e7eb"/>
<text x="34" y="330" class="td">Zancoo</text>
<text x="214" y="330" class="mono">00:35.99</text>
<text x="394" y="330" class="mono">7</text>
<text x="524" y="330" class="mono">789.1</text>
<text x="644" y="330" class="mono">7995</text>
<text x="764" y="330" class="mono">113</text>
<text x="884" y="330" class="mono">35</text>
<rect x="984" y="320" width="200" height="10" fill="#dbeafe" rx="5"/>
<rect x="984" y="320" width="71" height="10" fill="#2563eb" rx="5"/>
<rect x="1204" y="320" width="130" height="10" fill="#fee2e2" rx="5"/>
<rect x="1204" y="320" width="56" height="10" fill="#dc2626" rx="5"/>
<rect x="1354" y="320" width="130" height="10" fill="#dcfce7" rx="5"/>
<rect x="1354" y="320" width="90" height="10" fill="#16a34a" rx="5"/>
<rect x="24" y="364" width="1452" height="56" fill="#ffffff" stroke="#e5e7eb"/>
<text x="34" y="386" class="td">Aerodian</text>
<text x="214" y="386" class="mono">00:37.57</text>
<text x="394" y="386" class="mono">10</text>
<text x="524" y="386" class="mono">828.3</text>
<text x="644" y="386" class="mono">2700</text>
<text x="764" y="386" class="mono">0</text>
<text x="884" y="386" class="mono">52</text>
<rect x="984" y="376" width="200" height="10" fill="#dbeafe" rx="5"/>
<rect x="984" y="376" width="75" height="10" fill="#2563eb" rx="5"/>
<rect x="1204" y="376" width="130" height="10" fill="#fee2e2" rx="5"/>
<rect x="1204" y="376" width="81" height="10" fill="#dc2626" rx="5"/>
<rect x="1354" y="376" width="130" height="10" fill="#dcfce7" rx="5"/>
<rect x="1354" y="376" width="94" height="10" fill="#16a34a" rx="5"/>
</svg>