<svg xmlns="http://www.w3.org/2000/svg" width="1900" height="1144" viewBox="0 0 1900 1144">
<defs><linearGradient id="g" x1="0" y1="0" x2="1" y2="1"><stop offset="0%" stop-color="#111827"/><stop offset="100%" stop-color="#1f2937"/></linearGradient></defs>
<style>
.title{font:700 28px Arial,sans-serif;fill:#f9fafb;}
.sub{font:400 13px Arial,sans-serif;fill:#d1d5db;}
.legend{font:12px Arial,sans-serif;fill:#111827;}
.name{font:12px Arial,sans-serif;fill:#111827;}
.axis{font:11px Arial,sans-serif;fill:#6b7280;}
.count{font:11px "Courier New", monospace;fill:#374151;}
</style>
<rect x="0" y="0" width="1900" height="1144" fill="#f3f4f6"/>
<rect x="0" y="0" width="1900" height="98" fill="url(#g)"/>
<text x="24" y="42" class="title">Resistance Potion Timeline - Pull 1 (Wipe)</text>
<text x="24" y="64" class="sub">Window: 20:40:05.838 to 20:42:30.461 (includes -35s pre-pull)</text>
<text x="24" y="84" class="sub">Players: 40 | GAPP uses: 22 | MRP uses: 30</text>
<polygon points="24,122 34,110 44,122" fill="#2563eb"/>
<text x="50" y="121" class="legend">Greater Arcane Protection Potion</text>
<rect x="324" y="111" width="12" height="12" fill="#7c3aed"/>
<text x="342" y="121" class="legend">Magic Resistance Potion</text>
<line x1="264.0" y1="140" x2="264.0" y2="1090" stroke="#e5e7eb"/>
<text x="250.0" y="136" class="axis">-35s</text>
<line x1="365.8" y1="140" x2="365.8" y2="1090" stroke="#e5e7eb"/>
<text x="351.8" y="136" class="axis">-25s</text>
<line x1="467.6" y1="140" x2="467.6" y2="1090" stroke="#e5e7eb"/>
<text x="453.6" y="136" class="axis">-15s</text>
<line x1="569.3" y1="140" x2="569.3" y2="1090" stroke="#e5e7eb"/>
<text x="555.3" y="136" class="axis">-5s</text>
<line x1="671.1" y1="140" x2="671.1" y2="1090" stroke="#e5e7eb"/>
<text x="657.1" y="136" class="axis">5s</text>
<line x1="772.9" y1="140" x2="772.9" y2="1090" stroke="#e5e7eb"/>
<text x="758.9" y="136" class="axis">15s</text>
<line x1="874.7" y1="140" x2="874.7" y2="1090" stroke="#e5e7eb"/>
<text x="860.7" y="136" class="axis">25s</text>
<line x1="976.5" y1="140" x2="976.5" y2="1090" stroke="#e5e7eb"/>
<text x="962.5" y="136" class="axis">35s</text>
<line x1="1078.3" y1="140" x2="1078.3" y2="1090" stroke="#e5e7eb"/>
<text x="1064.3" y="136" class="axis">45s</text>
<line x1="1180.0" y1="140" x2="1180.0" y2="1090" stroke="#e5e7eb"/>
<text x="1166.0" y="136" class="axis">55s</text>
<line x1="1281.8" y1="140" x2="1281.8" y2="1090" stroke="#e5e7eb"/>
<text x="1267.8" y="136" class="axis">65s</text>
<line x1="1383.6" y1="140" x2="1383.6" y2="1090" stroke="#e5e7eb"/>
<text x="1369.6" y="136" class="axis">75s</text>
<line x1="1485.4" y1="140" x2="1485.4" y2="1090" stroke="#e5e7eb"/>
<text x="1471.4" y="136" class="axis">85s</text>
<line x1="1587.2" y1="140" x2="1587.2" y2="1090" stroke="#e5e7eb"/>
<text x="1573.2" y="136" class="axis">95s</text>
<line x1="1688.9" y1="140" x2="1688.9" y2="1090" stroke="#e5e7eb"/>
<text x="1674.9" y="136" class="axis">105s</text>
<line x1="1736.0" y1="140" x2="1736.0" y2="1090" stroke="#e5e7eb"/>
<text x="1722.0" y="136" class="axis">110s</text>
<line x1="620.2" y1="140" x2="620.2" y2="1090" stroke="#374151" stroke-dasharray="4 3"/>
<text x="624.2" y="136" class="axis">pull start</text>
<rect x="24" y="130" width="1852" height="24" fill="#ffffff" opacity="0.65"/>
<text x="24" y="144" class="name">Adalette</text>
<line x1="264" y1="147" x2="1736" y2="147" stroke="#d1d5db"/>
<polygon points="1605.4,153 1610.4,143 1615.4,153" fill="#2563eb"/>
<rect x="266.3" y="142" width="8" height="8" fill="#7c3aed"/>
<text x="1746" y="144" class="count">G:1 M:1</text>
<text x="24" y="168" class="name">Aerodian</text>
<line x1="264" y1="171" x2="1736" y2="171" stroke="#d1d5db"/>
<polygon points="1653.2,177 1658.2,167 1663.2,177" fill="#2563eb"/>
<text x="1746" y="168" class="count">G:1 M:0</text>
<rect x="24" y="178" width="1852" height="24" fill="#ffffff" opacity="0.65"/>
<text x="24" y="192" class="name">Ambitious</text>
<line x1="264" y1="195" x2="1736" y2="195" stroke="#d1d5db"/>
<rect x="287.9" y="190" width="8" height="8" fill="#7c3aed"/>
<text x="1746" y="192" class="count">G:0 M:1</text>
<text x="24" y="216" class="name">Amends</text>
<line x1="264" y1="219" x2="1736" y2="219" stroke="#d1d5db"/>
<rect x="273.3" y="214" width="8" height="8" fill="#7c3aed"/>
<text x="1746" y="216" class="count">G:0 M:1</text>
<rect x="24" y="226" width="1852" height="24" fill="#ffffff" opacity="0.65"/>
<text x="24" y="240" class="name">Axememore</text>
<line x1="264" y1="243" x2="1736" y2="243" stroke="#d1d5db"/>
<rect x="261.5" y="238" width="8" height="8" fill="#7c3aed"/>
<text x="1746" y="240" class="count">G:0 M:1</text>
<text x="24" y="264" class="name">Caub</text>
<line x1="264" y1="267" x2="1736" y2="267" stroke="#d1d5db"/>
<text x="1746" y="264" class="count">G:0 M:0</text>
<rect x="24" y="274" width="1852" height="24" fill="#ffffff" opacity="0.65"/>
<text x="24" y="288" class="name">Cinos</text>
<line x1="264" y1="291" x2="1736" y2="291" stroke="#d1d5db"/>
<rect x="260.2" y="286" width="8" height="8" fill="#7c3aed"/>
<text x="1746" y="288" class="count">G:0 M:1</text>
<text x="24" y="312" class="name">Coincidence</text>
<line x1="264" y1="315" x2="1736" y2="315" stroke="#d1d5db"/>
<polygon points="1708.8,321 1713.8,311 1718.8,321" fill="#2563eb"/>
<text x="1746" y="312" class="count">G:1 M:0</text>
<rect x="24" y="322" width="1852" height="24" fill="#ffffff" opacity="0.65"/>
<text x="24" y="336" class="name">Dokuku</text>
<line x1="264" y1="339" x2="1736" y2="339" stroke="#d1d5db"/>
<rect x="266.3" y="334" width="8" height="8" fill="#7c3aed"/>
<text x="1746" y="336" class="count">G:0 M:1</text>
<text x="24" y="360" class="name">Druidcyy</text>
<line x1="264" y1="363" x2="1736" y2="363" stroke="#d1d5db"/>
<polygon points="1610.6,369 1615.6,359 1620.6,369" fill="#2563eb"/>
<rect x="265.1" y="358" width="8" height="8" fill="#7c3aed"/>
<text x="1746" y="360" class="count">G:1 M:1</text>
<rect x="24" y="370" width="1852" height="24" fill="#ffffff" opacity="0.65"/>
<text x="24" y="384" class="name">Ekureru</text>
<line x1="264" y1="387" x2="1736" y2="387" stroke="#d1d5db"/>
<rect x="265.9" y="382" width="8" height="8" fill="#7c3aed"/>
<text x="1746" y="384" class="count">G:0 M:1</text>
<text x="24" y="408" class="name">Girthbone</text>
<line x1="264" y1="411" x2="1736" y2="411" stroke="#d1d5db"/>
<polygon points="1600.2,417 1605.2,407 1610.2,417" fill="#2563eb"/>
<text x="1746" y="408" class="count">G:1 M:0</text>
<rect x="24" y="418" width="1852" height="24" fill="#ffffff" opacity="0.65"/>
<text x="24" y="432" class="name">Gladriel</text>
<line x1="264" y1="435" x2="1736" y2="435" stroke="#d1d5db"/>
<polygon points="1693.3,441 1698.3,431 1703.3,441" fill="#2563eb"/>
<rect x="266.3" y="430" width="8" height="8" fill="#7c3aed"/>
<text x="1746" y="432" class="count">G:1 M:1</text>
<text x="24" y="456" class="name">Gustovich</text>
<line x1="264" y1="459" x2="1736" y2="459" stroke="#d1d5db"/>
<rect x="273.3" y="454" width="8" height="8" fill="#7c3aed"/>
<text x="1746" y="456" class="count">G:0 M:1</text>
<rect x="24" y="466" width="1852" height="24" fill="#ffffff" opacity="0.65"/>
<text x="24" y="480" class="name">Ichabaddie</text>
<line x1="264" y1="483" x2="1736" y2="483" stroke="#d1d5db"/>
<rect x="412.2" y="478" width="8" height="8" fill="#7c3aed"/>
<text x="1746" y="480" class="count">G:0 M:1</text>
<text x="24" y="504" class="name">Iriale</text>
<line x1="264" y1="507" x2="1736" y2="507" stroke="#d1d5db"/>
<polygon points="1493.6,513 1498.6,503 1503.6,513" fill="#2563eb"/>
<text x="1746" y="504" class="count">G:1 M:0</text>
<rect x="24" y="514" width="1852" height="24" fill="#ffffff" opacity="0.65"/>
<text x="24" y="528" class="name">Jorailin</text>
<line x1="264" y1="531" x2="1736" y2="531" stroke="#d1d5db"/>
<rect x="275.6" y="526" width="8" height="8" fill="#7c3aed"/>
<text x="1746" y="528" class="count">G:0 M:1</text>
<text x="24" y="552" class="name">Junoxz</text>
<line x1="264" y1="555" x2="1736" y2="555" stroke="#d1d5db"/>
<polygon points="1559.8,561 1564.8,551 1569.8,561" fill="#2563eb"/>
<rect x="261.4" y="550" width="8" height="8" fill="#7c3aed"/>
<text x="1746" y="552" class="count">G:1 M:1</text>
<rect x="24" y="562" width="1852" height="24" fill="#ffffff" opacity="0.65"/>
<text x="24" y="576" class="name">Koukenbol</text>
<line x1="264" y1="579" x2="1736" y2="579" stroke="#d1d5db"/>
<polygon points="1610.3,585 1615.3,575 1620.3,585" fill="#2563eb"/>
<rect x="270.4" y="574" width="8" height="8" fill="#7c3aed"/>
<text x="1746" y="576" class="count">G:1 M:1</text>
<text x="24" y="600" class="name">Lafi</text>
<line x1="264" y1="603" x2="1736" y2="603" stroke="#d1d5db"/>
<polygon points="1490.0,609 1495.0,599 1500.0,609" fill="#2563eb"/>
<rect x="265.9" y="598" width="8" height="8" fill="#7c3aed"/>
<text x="1746" y="600" class="count">G:1 M:1</text>
<rect x="24" y="610" width="1852" height="24" fill="#ffffff" opacity="0.65"/>
<text x="24" y="624" class="name">Lezner</text>
<line x1="264" y1="627" x2="1736" y2="627" stroke="#d1d5db"/>
<polygon points="1509.5,633 1514.5,623 1519.5,633" fill="#2563eb"/>
<rect x="265.9" y="622" width="8" height="8" fill="#7c3aed"/>
<text x="1746" y="624" class="count">G:1 M:1</text>
<text x="24" y="648" class="name">Lochien</text>
<line x1="264" y1="651" x2="1736" y2="651" stroke="#d1d5db"/>
<rect x="260.9" y="646" width="8" height="8" fill="#7c3aed"/>
<text x="1746" y="648" class="count">G:0 M:1</text>
<rect x="24" y="658" width="1852" height="24" fill="#ffffff" opacity="0.65"/>
<text x="24" y="672" class="name">Lopp</text>
<line x1="264" y1="675" x2="1736" y2="675" stroke="#d1d5db"/>
<text x="1746" y="672" class="count">G:0 M:0</text>
<text x="24" y="696" class="name">Makende</text>
<line x1="264" y1="699" x2="1736" y2="699" stroke="#d1d5db"/>
<polygon points="1642.5,705 1647.5,695 1652.5,705" fill="#2563eb"/>
<rect x="264.0" y="694" width="8" height="8" fill="#7c3aed"/>
<text x="1746" y="696" class="count">G:1 M:1</text>
<rect x="24" y="706" width="1852" height="24" fill="#ffffff" opacity="0.65"/>
<text x="24" y="720" class="name">Mazgro</text>
<line x1="264" y1="723" x2="1736" y2="723" stroke="#d1d5db"/>
<polygon points="1498.8,729 1503.8,719 1508.8,729" fill="#2563eb"/>
<rect x="260.9" y="718" width="8" height="8" fill="#7c3aed"/>
<text x="1746" y="720" class="count">G:1 M:1</text>
<text x="24" y="744" class="name">Meatmuncher</text>
<line x1="264" y1="747" x2="1736" y2="747" stroke="#d1d5db"/>
<polygon points="1596.8,753 1601.8,743 1606.8,753" fill="#2563eb"/>
<rect x="260.9" y="742" width="8" height="8" fill="#7c3aed"/>
<text x="1746" y="744" class="count">G:1 M:1</text>
<rect x="24" y="754" width="1852" height="24" fill="#ffffff" opacity="0.65"/>
<text x="24" y="768" class="name">Midnas</text>
<line x1="264" y1="771" x2="1736" y2="771" stroke="#d1d5db"/>
<polygon points="1600.2,777 1605.2,767 1610.2,777" fill="#2563eb"/>
<rect x="264.0" y="766" width="8" height="8" fill="#7c3aed"/>
<text x="1746" y="768" class="count">G:1 M:1</text>
<text x="24" y="792" class="name">Mynie</text>
<line x1="264" y1="795" x2="1736" y2="795" stroke="#d1d5db"/>
<polygon points="1609.2,801 1614.2,791 1619.2,801" fill="#2563eb"/>
<text x="1746" y="792" class="count">G:1 M:0</text>
<rect x="24" y="802" width="1852" height="24" fill="#ffffff" opacity="0.65"/>
<text x="24" y="816" class="name">Naturetouch</text>
<line x1="264" y1="819" x2="1736" y2="819" stroke="#d1d5db"/>
<polygon points="1671.8,825 1676.8,815 1681.8,825" fill="#2563eb"/>
<rect x="265.1" y="814" width="8" height="8" fill="#7c3aed"/>
<text x="1746" y="816" class="count">G:1 M:1</text>
<text x="24" y="840" class="name">Nawern</text>
<line x1="264" y1="843" x2="1736" y2="843" stroke="#d1d5db"/>
<polygon points="1611.5,849 1616.5,839 1621.5,849" fill="#2563eb"/>
<rect x="261.4" y="838" width="8" height="8" fill="#7c3aed"/>
<text x="1746" y="840" class="count">G:1 M:1</text>
<rect x="24" y="850" width="1852" height="24" fill="#ffffff" opacity="0.65"/>
<text x="24" y="864" class="name">Obanion</text>
<line x1="264" y1="867" x2="1736" y2="867" stroke="#d1d5db"/>
<text x="1746" y="864" class="count">G:0 M:0</text>
<text x="24" y="888" class="name">Rokomito</text>
<line x1="264" y1="891" x2="1736" y2="891" stroke="#d1d5db"/>
<polygon points="1578.5,897 1583.5,887 1588.5,897" fill="#2563eb"/>
<rect x="264.0" y="886" width="8" height="8" fill="#7c3aed"/>
<text x="1746" y="888" class="count">G:1 M:1</text>
<rect x="24" y="898" width="1852" height="24" fill="#ffffff" opacity="0.65"/>
<text x="24" y="912" class="name">Sarys</text>
<line x1="264" y1="915" x2="1736" y2="915" stroke="#d1d5db"/>
<rect x="274.1" y="910" width="8" height="8" fill="#7c3aed"/>
<text x="1746" y="912" class="count">G:0 M:1</text>
<text x="24" y="936" class="name">Shangcheeze</text>
<line x1="264" y1="939" x2="1736" y2="939" stroke="#d1d5db"/>
<text x="1746" y="936" class="count">G:0 M:0</text>
<rect x="24" y="946" width="1852" height="24" fill="#ffffff" opacity="0.65"/>
<text x="24" y="960" class="name">Snackermz</text>
<line x1="264" y1="963" x2="1736" y2="963" stroke="#d1d5db"/>
<rect x="281.6" y="958" width="8" height="8" fill="#7c3aed"/>
<text x="1746" y="960" class="count">G:0 M:1</text>
<text x="24" y="984" class="name">Stormstiker</text>
<line x1="264" y1="987" x2="1736" y2="987" stroke="#d1d5db"/>
<polygon points="1503.8,993 1508.8,983 1513.8,993" fill="#2563eb"/>
<rect x="260.9" y="982" width="8" height="8" fill="#7c3aed"/>
<text x="1746" y="984" class="count">G:1 M:1</text>
<rect x="24" y="994" width="1852" height="24" fill="#ffffff" opacity="0.65"/>
<text x="24" y="1008" class="name">Topsoon</text>
<line x1="264" y1="1011" x2="1736" y2="1011" stroke="#d1d5db"/>
<text x="1746" y="1008" class="count">G:0 M:0</text>
<text x="24" y="1032" class="name">Totemhero</text>
<line x1="264" y1="1035" x2="1736" y2="1035" stroke="#d1d5db"/>
<rect x="269.3" y="1030" width="8" height="8" fill="#7c3aed"/>
<text x="1746" y="1032" class="count">G:0 M:1</text>
<rect x="24" y="1042" width="1852" height="24" fill="#ffffff" opacity="0.65"/>
<text x="24" y="1056" class="name">Voster</text>
<line x1="264" y1="1059" x2="1736" y2="1059" stroke="#d1d5db"/>
<polygon points="1607.7,1065 1612.7,1055 1617.7,1065" fill="#2563eb"/>
<rect x="264.4" y="1054" width="8" height="8" fill="#7c3aed"/>
<text x="1746" y="1056" class="count">G:1 M:1</text>
<text x="24" y="1080" class="name">Zancoo</text>
<line x1="264" y1="1083" x2="1736" y2="1083" stroke="#d1d5db"/>
<polygon points="1672.5,1089 1677.5,1079 1682.5,1089" fill="#2563eb"/>
<rect x="266.3" y="1078" width="8" height="8" fill="#7c3aed"/>
<text x="1746" y="1080" class="count">G:1 M:1</text>
<text x="264" y="1136" class="axis">-35s pre-pull</text>
<text x="1616" y="1136" class="axis">pull end</text>
</svg>
